# xmcd
#
# Track frame offsets:
#	150
#	16482
#	30197
#	42267
#	60632
#	73632
#	89417
#	101560
#	119820
#	133327
#	146160
#	166687
#	176470
#	188480
#	200522
#	212992
#
# Disc length: 3125
#
# Revision: 1
# Processed by: cddbd v1.5.1PL0 Copyright (c) Steve Scherf et al.
# Submitted via: dBpowerAMP V4.0
# Normalized: r0:TDELIM( - )
#
DISCID=e70c3310
DTITLE=Various Artist - The heart of Soul - Vol II
DYEAR=1900
DGENRE=Soul
TTITLE0=The Commodores - Three Times A Lady
TTITLE1=Percy Sledge - Take Time To Know Her
TTITLE2=Smokey Robinson and The Miracles - I Second That Emotion
TTITLE3=Wilson Pickett - Hey Jude
TTITLE4=Otis Redding - My Girl
TTITLE5=Aretha Franklin - I Say A Little Prayer
TTITLE6=Four Tops - I Can't Help Myself
TTITLE7=Hot Chocolate - You Sexy Thing
TTITLE8=O'Jays - Love Train
TTITLE9=Ben E King - It's All In The Game
TTITLE10=Barry White - You're The First, My Last, My Everything
TTITLE11=The Drifters - There Goes My Baby
TTITLE12=The Platters - Smoke Gets In Your Eyes
TTITLE13=Brook Benton - Don't It Make You Wanna Go Home
TTITLE14=James Brown - It's A Man's World
TTITLE15=B.B. - Sexual Healing
EXTD=
EXTT0=
EXTT1=
EXTT2=
EXTT3=
EXTT4=
EXTT5=
EXTT6=
EXTT7=
EXTT8=
EXTT9=
EXTT10=
EXTT11=
EXTT12=
EXTT13=
EXTT14=
EXTT15=
PLAYORDER=
